<svg xmlns="http://www.w3.org/2000/svg" width="256" height="256" viewBox="0 0 256 256">
  <g fill="currentColor">
    <rect x="91" y="30" width="74" height="126" rx="37"/>
    <path d="M68 113a9 9 0 0 1 9 9v11c0 32 22 58 51 58s51-26 51-58v-11a9 9 0 1 1 18 0v11c0 39-26 71-60 76v10h22a9 9 0 1 1 0 18H97a9 9 0 1 1 0-18h22v-10c-34-5-60-37-60-76v-11a9 9 0 0 1 9-9z"/>
  </g>
  <g fill="#000">
    <rect x="103" y="91" width="7" height="22" rx="3.5"/>
    <rect x="115" y="78" width="8" height="48" rx="4"/>
    <rect x="128" y="66" width="8" height="72" rx="4"/>
    <rect x="141" y="78" width="8" height="48" rx="4"/>
  </g>
</svg>
